<svg xmlns="http://www.w3.org/2000/svg" xmlns:xlink="http://www.w3.org/1999/xlink" viewBox="0 0 600 600" width="600" height="600" preserveAspectRatio="xMidYMid meet" style="width: 100%; height: 100%; transform: translate3d(0px, 0px, 0px); content-visibility: visible;"><defs><clipPath id="__lottie_element_49"><rect width="600" height="600" x="0" y="0"></rect></clipPath></defs><g clip-path="url(#__lottie_element_49)"><g transform="matrix(1,0,0,1,0,0)" opacity="1" style="display: block;"><g opacity="1" transform="matrix(1,0,0,1,350.8869934082031,399.72100830078125)"><path fill="rgb(115,254,102)" fill-opacity="1" d=" M-30.045000076293945,30.0310001373291 C-30.045000076293945,30.0310001373291 30.04599952697754,30.0310001373291 30.04599952697754,30.0310001373291 C30.04599952697754,30.0310001373291 -30.01300048828125,-30.0310001373291 -30.01300048828125,-30.0310001373291 C-30.01300048828125,-30.0310001373291 -30.045000076293945,30.0310001373291 -30.045000076293945,30.0310001373291z"></path></g></g><g transform="matrix(1,0,0,1,0,0)" opacity="1" style="display: block;"><g opacity="1" transform="matrix(1,0,0,1,365.2439880371094,444.81500244140625)"><path fill="rgb(22,143,10)" fill-opacity="1" d=" M-13.043000221252441,-16.07699966430664 C-14.692999839782715,-16.077999114990234 -16.045000076293945,-14.727999687194824 -16.04599952697754,-13.07800006866455 C-16.04599952697754,-13.07800006866455 -16.065000534057617,14.032999992370605 -16.065000534057617,14.032999992370605 C-16.06599998474121,15.682999610900879 -15.11400032043457,16.07900047302246 -13.946999549865723,14.911999702453613 C-13.946999549865723,14.911999702453613 14.899999618530273,-13.940999984741211 14.899999618530273,-13.940999984741211 C16.066999435424805,-15.107999801635742 15.670999526977539,-16.062999725341797 14.020999908447266,-16.06399917602539 C14.020999908447266,-16.06399917602539 -13.043000221252441,-16.07699966430664 -13.043000221252441,-16.07699966430664z"></path></g></g><g transform="matrix(1,0,0,1,0,0)" opacity="1" style="display: block;"><g opacity="1" transform="matrix(1,0,0,1,381.2179870605469,266.7720031738281)"><path fill="rgb(22,143,10)" fill-opacity="1" d=" M-55.361000061035156,-61.319000244140625 C-58.6609992980957,-61.31800079345703 -61.361000061035156,-58.617000579833984 -61.36000061035156,-55.31700134277344 C-61.36000061035156,-55.31700134277344 -61.34199905395508,57.262001037597656 -61.34199905395508,57.262001037597656 C-61.340999603271484,60.5620002746582 -59.43199920654297,61.35200119018555 -57.097999572753906,59.01900100708008 C-57.097999572753906,59.01900100708008 59.027000427246094,-57.11000061035156 59.027000427246094,-57.11000061035156 C61.361000061035156,-59.444000244140625 60.56999969482422,-61.35200119018555 57.27000045776367,-61.35100173950195 C57.27000045776367,-61.35100173950195 -55.361000061035156,-61.319000244140625 -55.361000061035156,-61.319000244140625z"></path></g></g><g transform="matrix(1,0,0,1,0,0)" opacity="1" style="display: block;"><g opacity="1" transform="matrix(1,0,0,1,378.23199462890625,199.50399780273438)"><path fill="rgb(115,254,102)" fill-opacity="1" d=" M-55.358001708984375,-61.321998596191406 C-58.65800094604492,-61.32099914550781 -61.35900115966797,-58.61899948120117 -61.358001708984375,-55.319000244140625 C-61.358001708984375,-55.319000244140625 -61.347999572753906,57.2599983215332 -61.347999572753906,57.2599983215332 C-61.34700012207031,60.560001373291016 -59.4379997253418,61.35100173950195 -57.104000091552734,59.018001556396484 C-57.104000091552734,59.018001556396484 59.0260009765625,-57.10900115966797 59.0260009765625,-57.10900115966797 C61.35900115966797,-59.44200134277344 60.56800079345703,-61.35100173950195 57.268001556396484,-61.349998474121094 C57.268001556396484,-61.349998474121094 -55.358001708984375,-61.321998596191406 -55.358001708984375,-61.321998596191406z"></path></g></g><g transform="matrix(1,0,0,1,0,0)" opacity="1" style="display: block;"><g opacity="1" transform="matrix(1,0,0,1,247.97000122070312,283.9679870605469)"><path fill="rgb(115,254,102)" fill-opacity="1" d=" M-72.90299987792969,0.017999999225139618 C-72.90299987792969,0.017999999225139618 72.87100219726562,145.78399658203125 72.87100219726562,145.78399658203125 C72.87100219726562,145.78399658203125 72.90299987792969,-145.78399658203125 72.90299987792969,-145.78399658203125 C72.90299987792969,-145.78399658203125 -72.90299987792969,0.017999999225139618 -72.90299987792969,0.017999999225139618z"></path></g></g><g transform="matrix(1,0,0,1,2.714996337890625,4.071990966796875)" opacity="1" style="display: block;"><g opacity="1" transform="matrix(1,0,0,1,203.16200256347656,223.4530029296875)"><path fill="rgb(115,254,102)" fill-opacity="1" d=" M-28.094999313354492,60.53300094604492 C-28.094999313354492,60.53300094604492 -60.529998779296875,-60.53300094604492 -60.529998779296875,-60.53300094604492 C-60.529998779296875,-60.53300094604492 60.529998779296875,-28.09600067138672 60.529998779296875,-28.09600067138672 C60.529998779296875,-28.09600067138672 -28.094999313354492,60.53300094604492 -28.094999313354492,60.53300094604492z"></path></g></g><g transform="matrix(1,0,0,1,3.2880096435546875,4.42999267578125)" opacity="1" style="display: block;"><g opacity="1" transform="matrix(1,0,0,1,131.19200134277344,190.41400146484375)"><path fill="rgb(22,143,10)" fill-opacity="1" d=" M28.110000610351562,23.863000869750977 C28.964000701904297,27.049999237060547 27.05500030517578,28.959999084472656 23.868000030517578,28.104999542236328 C23.868000030517578,28.104999542236328 -25.077999114990234,14.989999771118164 -25.077999114990234,14.989999771118164 C-28.264999389648438,14.13599967956543 -28.964000701904297,11.529000282287598 -26.6299991607666,9.194999694824219 C-26.6299991607666,9.194999694824219 9.196999549865723,-26.628000259399414 9.196999549865723,-26.628000259399414 C11.529999732971191,-28.961000442504883 14.138999938964844,-28.261999130249023 14.993000030517578,-25.073999404907227 C14.993000030517578,-25.073999404907227 28.110000610351562,23.863000869750977 28.110000610351562,23.863000869750977z"></path></g></g></g></svg>